<?xml version="1.0" encoding="UTF-8"?><svg xmlns="http://www.w3.org/2000/svg" xmlns:xlink="http://www.w3.org/1999/xlink" width="127" height="135"><title>C</title><line x1="7" y1="17" x2="7" y2="135" style="stroke: #000; stroke-width: 1;" /><line x1="25" y1="17" x2="25" y2="135" style="stroke: #000; stroke-width: 1;" /><line x1="43" y1="17" x2="43" y2="135" style="stroke: #000; stroke-width: 1;" /><line x1="61" y1="17" x2="61" y2="135" style="stroke: #000; stroke-width: 1;" /><line x1="79" y1="17" x2="79" y2="135" style="stroke: #000; stroke-width: 1;" /><line x1="97" y1="17" x2="97" y2="135" style="stroke: #000; stroke-width: 1;" /><line x1="7" y1="25" x2="97" y2="25" style="stroke: #000; stroke-width: 1;" /><line x1="7" y1="45" x2="97" y2="45" style="stroke: #000; stroke-width: 1;" /><line x1="7" y1="65" x2="97" y2="65" style="stroke: #000; stroke-width: 1;" /><line x1="7" y1="85" x2="97" y2="85" style="stroke: #000; stroke-width: 1;" /><line x1="7" y1="105" x2="97" y2="105" style="stroke: #000; stroke-width: 1;" /><line x1="7" y1="125" x2="97" y2="125" style="stroke: #000; stroke-width: 1;" /><text x="107" y="34" fill="#000;" font-family="sans-serif" font-size="1em">viii</text><circle cx="97" cy="35" r="7" style="fill: #000;" /><circle cx="79" cy="35" r="7" style="fill: #000;" /><circle cx="61" cy="55" r="7" style="fill: #000;" /><circle cx="43" cy="75" r="7" style="fill: #000;" /><line x1="1" y1="0" x2="13" y2="12" style="stroke: #000; stroke-width: 1.25;" /><line x1="13" y1="0" x2="1" y2="12" style="stroke: #000; stroke-width: 1.25;" /><line x1="19" y1="0" x2="31" y2="12" style="stroke: #000; stroke-width: 1.25;" /><line x1="31" y1="0" x2="19" y2="12" style="stroke: #000; stroke-width: 1.25;" /></svg>